<svg width="636" height="480.00000000000006" xmlns="http://www.w3.org/2000/svg">
 <defs>
  <style>.cls-1{fill:#048bc9;}.cls-2{fill:#0066a0;}.cls-3{fill:#777878;}</style>
 </defs>
 <title>Prancheta 1 cópia 4</title>
 <g>
  <title>background</title>
  <rect fill="none" id="canvas_background" height="482" width="638" y="-1" x="-1"/>
 </g>
 <g>
  <title>Layer 1</title>
  <path id="svg_1" d="m329.520004,208.200004l27.07,-27.07l52.21,-52.22a73.85,73.85 0 0 1 104.45,104.43l-52.25,52.21l-52.2,52.23l-79.27,79.28a35.67,35.67 0 0 1 -50.3,0l-79.29,-79.28l-52.22,-52.23a73.84,73.84 0 0 1 104.44,-104.43l27.08,27.07a35.66,35.66 0 0 0 50.29,0m170.47,-168.04a101.29,101.29 0 0 0 -71.73,29.64l0.18,0.18l-52.45,52.41c-39.52,39.53 -104.19,39.53 -143.71,0s-104.2,-39.52 -143.72,0a101.37,101.37 0 0 0 -29.57,71.75l0,0.25a101.34,101.34 0 0 0 29.66,71.73l71.8,71.89l109.11,109.08a48.82,48.82 0 0 0 34.43,14.27l0.35,0a48.8,48.8 0 0 0 34.43,-14.27l109.13,-109.08l71.85,-71.87l52.42,-52.41l-0.19,-0.19c39.52,-39.53 39.52,-104.22 0.01,-143.74a101.29,101.29 0 0 0 -71.76,-29.64l-0.24,0z" class="cls-1"/>
  <path id="svg_2" d="m93.973336,126.000002a74,74 0 0 0 0,104.43l39,39a73.84,73.84 0 0 1 104.52,-104.3l13.13,13.12l-52.22,-52.25a74,74 0 0 0 -104.43,0" class="cls-2"/>
  <path id="svg_3" d="m410.356672,124.666668l13.11,-13.09l-13.11,13.09zm65.34,-65.32l-52.23,52.23a73.85,73.85 0 0 1 104.58,104.29l39,-39a73.85,73.85 0 0 0 -104.47,-104.39" class="cls-2"/>
 </g>
</svg>